<?xml version="1.0" standalone="no"?>
<!DOCTYPE svg PUBLIC "-//W3C//DTD SVG 20010904//EN"
 "http://www.w3.org/TR/2001/REC-SVG-20010904/DTD/svg10.dtd">
<svg version="1.0" xmlns="http://www.w3.org/2000/svg"
 width="900.000000pt" height="900.000000pt" viewBox="0 0 900.000000 900.000000"
 preserveAspectRatio="xMidYMid meet">
<metadata>
Created by potrace 1.14, written by Peter Selinger 2001-2017
</metadata>
<g transform="translate(0.000000,900.000000) scale(0.100000,-0.100000)"
fill="#000000" stroke="none">
<path d="M3945 5364 c-375 -28 -481 -40 -686 -80 -481 -93 -941 -290 -1241
-532 -227 -184 -388 -417 -455 -659 -25 -88 -28 -114 -27 -258 0 -131 4 -175
21 -241 66 -250 187 -455 398 -673 585 -606 1669 -991 2785 -991 840 0 1574
204 2063 572 102 77 268 242 329 328 121 171 190 348 207 534 27 282 -61 562
-262 832 -66 88 -219 247 -322 333 -517 434 -1313 735 -2157 816 -156 14 -556
26 -653 19z"/>
</g>
</svg>
